<svg width="433" height="229" viewBox="0 0 433 229" fill="none" xmlns="http://www.w3.org/2000/svg">
<path d="M196.408 20C196.408 8.95431 205.362 0 216.408 0C227.453 0 236.408 8.95431 236.408 20V88H225.741C209.541 88 196.408 74.867 196.408 58.6667V20Z" fill="#45C9F9" fill-opacity="0.85"/>
<path d="M236.408 115C236.408 126.046 227.453 135 216.408 135C205.362 135 196.408 126.046 196.408 115V47H207.074C223.275 47 236.408 60.133 236.408 76.3333V115Z" fill="#A76FD5" fill-opacity="0.86"/>
<path d="M236.408 47H263.408C274.454 47 283.408 55.9543 283.408 67V68C283.408 79.0457 274.454 88 263.408 88H236.408V47Z" fill="#45C9F9" fill-opacity="0.85"/>
<path d="M196.408 88H169.408C158.362 88 149.408 79.0457 149.408 68V67C149.408 55.9543 158.362 47 169.408 47H196.408V88Z" fill="#A76FD5" fill-opacity="0.86"/>
<path d="M275.408 120C275.408 124.971 271.379 129 266.408 129C261.437 129 257.408 124.971 257.408 120C257.408 115.029 261.437 111 266.408 111C271.379 111 275.408 115.029 275.408 120Z" fill="#76C8DB"/>
<path d="M20.928 159.8C23.424 159.8 25.92 160.152 28.416 160.856C30.912 161.56 33.184 162.776 35.232 164.504C37.28 166.232 38.912 168.664 40.128 171.8C41.344 174.872 41.952 178.776 41.952 183.512C41.952 188.76 41.344 193.016 40.128 196.28C38.976 199.48 37.376 201.944 35.328 203.672C33.28 205.4 31.008 206.584 28.512 207.224C26.08 207.864 23.552 208.184 20.928 208.184H10.656V227H0V159.8H20.928ZM10.656 198.104H16.992C19.488 198.104 21.632 197.944 23.424 197.624C25.216 197.304 26.688 196.664 27.84 195.704C28.992 194.68 29.824 193.208 30.336 191.288C30.912 189.368 31.2 186.776 31.2 183.512C31.2 180.504 30.912 178.136 30.336 176.408C29.824 174.616 28.992 173.304 27.84 172.472C26.688 171.576 25.216 171 23.424 170.744C21.632 170.488 19.488 170.36 16.992 170.36H10.656V198.104Z" fill="white"/>
<path d="M60.2475 181.112C60.8235 180.728 61.5915 180.28 62.5515 179.768C63.5755 179.256 64.6955 178.84 65.9115 178.52C67.1915 178.136 68.5035 177.944 69.8475 177.944C71.3835 177.944 72.8875 178.104 74.3595 178.424C75.8315 178.744 77.2075 179.256 78.4875 179.96C79.8315 180.664 81.0155 181.624 82.0395 182.84C83.0635 184.056 83.8635 185.56 84.4395 187.352C85.0155 189.144 85.3035 191.288 85.3035 193.784V227H74.8395V193.976C74.8395 193.08 74.6795 192.248 74.3595 191.48C74.0395 190.712 73.5595 190.04 72.9195 189.464C72.3435 188.888 71.6075 188.44 70.7115 188.12C69.8795 187.8 68.9515 187.64 67.9275 187.64C67.2235 187.64 66.4555 187.736 65.6235 187.928C64.8555 188.056 64.0235 188.28 63.1275 188.6C62.2315 188.92 61.2715 189.336 60.2475 189.848V227H49.6875V159.8H60.2475V181.112Z" fill="white"/>
<path d="M119.469 194.84C119.469 192.984 119.277 191.448 118.893 190.232C118.509 189.016 117.901 188.056 117.069 187.352C116.237 186.648 115.181 186.136 113.901 185.816C112.621 185.496 111.053 185.336 109.197 185.336L110.061 178.04C113.709 178.04 116.781 178.36 119.277 179C121.837 179.64 123.885 180.728 125.421 182.264C127.021 183.736 128.173 185.72 128.877 188.216C129.645 190.712 130.029 193.816 130.029 197.528V227C129.005 227.128 127.949 227.256 126.861 227.384C125.773 227.512 124.653 227.608 123.501 227.672C122.413 227.8 121.261 227.864 120.045 227.864C118.893 227.928 117.709 227.96 116.493 227.96C115.277 228.024 114.029 228.056 112.749 228.056C109.997 228.056 107.437 227.8 105.069 227.288C102.701 226.776 100.589 225.912 98.733 224.696C96.941 223.416 95.533 221.752 94.509 219.704C93.485 217.656 92.973 215.096 92.973 212.024V202.712C92.973 200.28 93.325 198.168 94.029 196.376C94.733 194.584 95.693 193.112 96.909 191.96C98.125 190.808 99.501 189.944 101.037 189.368C102.637 188.792 104.301 188.504 106.029 188.504C107.629 188.504 109.293 188.76 111.021 189.272C112.749 189.72 114.349 190.424 115.821 191.384C117.357 192.28 118.573 193.432 119.469 194.84ZM119.469 202.712C119.149 202.456 118.413 202.072 117.261 201.56C116.173 201.048 114.893 200.568 113.421 200.12C111.949 199.608 110.477 199.352 109.005 199.352C108.301 199.352 107.629 199.448 106.989 199.64C106.349 199.768 105.773 200.024 105.261 200.408C104.813 200.728 104.429 201.208 104.109 201.848C103.853 202.424 103.725 203.16 103.725 204.056V210.296C103.725 211.512 103.821 212.6 104.013 213.56C104.269 214.52 104.717 215.352 105.357 216.056C106.061 216.76 107.053 217.304 108.333 217.688C109.677 218.072 111.437 218.264 113.613 218.264C113.933 218.264 114.317 218.264 114.765 218.264C115.277 218.2 115.789 218.168 116.301 218.168C116.877 218.104 117.389 218.072 117.837 218.072C118.349 218.008 118.733 217.976 118.989 217.976C119.309 217.912 119.469 217.88 119.469 217.88V202.712Z" fill="white"/>
<path d="M166.405 187.64C166.405 187.64 165.989 187.544 165.157 187.352C164.389 187.096 163.141 186.968 161.413 186.968C160.389 186.968 159.333 187.032 158.245 187.16C157.157 187.224 156.069 187.384 154.981 187.64C153.957 187.832 152.933 188.088 151.909 188.408C150.885 188.728 149.893 189.144 148.933 189.656V227H138.277V178.904H148.933V180.824C150.533 179.736 152.325 178.904 154.309 178.328C156.293 177.752 158.309 177.464 160.357 177.464C161.829 177.464 163.205 177.624 164.485 177.944C165.765 178.2 166.917 178.52 167.941 178.904L166.405 187.64Z" fill="white"/>
<path d="M227.043 194.168C227.043 193.208 226.851 192.344 226.467 191.576C226.083 190.744 225.539 190.072 224.835 189.56C224.131 188.984 223.331 188.536 222.435 188.216C221.539 187.896 220.579 187.736 219.555 187.736C218.979 187.736 218.243 187.832 217.347 188.024C216.515 188.152 215.587 188.408 214.563 188.792C213.603 189.112 212.611 189.528 211.587 190.04C211.715 190.616 211.779 191.224 211.779 191.864C211.843 192.504 211.875 193.176 211.875 193.88V227H201.315V194.168C201.315 193.208 201.123 192.344 200.739 191.576C200.355 190.744 199.843 190.072 199.203 189.56C198.563 188.984 197.795 188.536 196.899 188.216C196.003 187.896 195.043 187.736 194.019 187.736C193.315 187.736 192.547 187.832 191.715 188.024C190.883 188.152 190.019 188.408 189.123 188.792C188.227 189.112 187.299 189.528 186.339 190.04V227H175.683V178.904H186.339V181.208C186.851 180.888 187.587 180.504 188.547 180.056C189.571 179.544 190.691 179.096 191.907 178.712C193.187 178.328 194.499 178.136 195.843 178.136C197.379 178.136 198.883 178.296 200.355 178.616C201.827 178.872 203.235 179.352 204.579 180.056C205.987 180.696 207.203 181.592 208.227 182.744C209.379 181.976 210.595 181.24 211.875 180.536C213.219 179.832 214.691 179.256 216.291 178.808C217.891 178.36 219.619 178.136 221.475 178.136C223.395 178.136 225.283 178.392 227.139 178.904C229.059 179.352 230.787 180.184 232.323 181.4C233.923 182.552 235.203 184.152 236.163 186.2C237.123 188.248 237.603 190.808 237.603 193.88V227H227.043V194.168Z" fill="white"/>
<path d="M272 194.84C272 192.984 271.808 191.448 271.424 190.232C271.04 189.016 270.432 188.056 269.6 187.352C268.768 186.648 267.712 186.136 266.432 185.816C265.152 185.496 263.584 185.336 261.728 185.336L262.592 178.04C266.24 178.04 269.312 178.36 271.808 179C274.368 179.64 276.416 180.728 277.952 182.264C279.552 183.736 280.704 185.72 281.408 188.216C282.176 190.712 282.56 193.816 282.56 197.528V227C281.536 227.128 280.48 227.256 279.392 227.384C278.304 227.512 277.184 227.608 276.032 227.672C274.944 227.8 273.792 227.864 272.576 227.864C271.424 227.928 270.24 227.96 269.024 227.96C267.808 228.024 266.56 228.056 265.28 228.056C262.528 228.056 259.968 227.8 257.6 227.288C255.232 226.776 253.12 225.912 251.264 224.696C249.472 223.416 248.064 221.752 247.04 219.704C246.016 217.656 245.504 215.096 245.504 212.024V202.712C245.504 200.28 245.856 198.168 246.56 196.376C247.264 194.584 248.224 193.112 249.44 191.96C250.656 190.808 252.032 189.944 253.568 189.368C255.168 188.792 256.832 188.504 258.56 188.504C260.16 188.504 261.824 188.76 263.552 189.272C265.28 189.72 266.88 190.424 268.352 191.384C269.888 192.28 271.104 193.432 272 194.84ZM272 202.712C271.68 202.456 270.944 202.072 269.792 201.56C268.704 201.048 267.424 200.568 265.952 200.12C264.48 199.608 263.008 199.352 261.536 199.352C260.832 199.352 260.16 199.448 259.52 199.64C258.88 199.768 258.304 200.024 257.792 200.408C257.344 200.728 256.96 201.208 256.64 201.848C256.384 202.424 256.256 203.16 256.256 204.056V210.296C256.256 211.512 256.352 212.6 256.544 213.56C256.8 214.52 257.248 215.352 257.888 216.056C258.592 216.76 259.584 217.304 260.864 217.688C262.208 218.072 263.968 218.264 266.144 218.264C266.464 218.264 266.848 218.264 267.296 218.264C267.808 218.2 268.32 218.168 268.832 218.168C269.408 218.104 269.92 218.072 270.368 218.072C270.88 218.008 271.264 217.976 271.52 217.976C271.84 217.912 272 217.88 272 217.88V202.712Z" fill="white"/>
<path d="M301.562 214.328C301.562 215.736 301.85 216.856 302.426 217.688C303.002 218.456 303.802 219 304.826 219.32C305.914 219.64 307.194 219.8 308.666 219.8L305.498 228.248C300.634 228.12 296.954 226.904 294.458 224.6C292.026 222.232 290.81 218.808 290.81 214.328V159.8H301.562V179H310.778L308.57 188.696H301.562V214.328Z" fill="white"/>
<path d="M326.578 212.696C326.578 213.528 326.706 214.296 326.962 215C327.218 215.64 327.57 216.216 328.018 216.728C328.466 217.24 329.042 217.624 329.746 217.88C330.45 218.136 331.218 218.264 332.05 218.264C333.778 218.264 335.73 217.88 337.906 217.112C340.146 216.344 342.258 215.448 344.242 214.424L348.082 223.64C345.906 225.048 343.346 226.168 340.402 227C337.522 227.832 334.642 228.248 331.762 228.248C329.522 228.248 327.41 227.96 325.426 227.384C323.506 226.808 321.81 225.944 320.338 224.792C318.93 223.64 317.81 222.168 316.978 220.376C316.21 218.584 315.826 216.472 315.826 214.04V194.36C315.826 190.712 316.594 187.672 318.13 185.24C319.73 182.808 321.874 180.984 324.562 179.768C327.25 178.552 330.258 177.944 333.586 177.944C336.978 177.944 339.922 178.552 342.418 179.768C344.978 180.92 346.962 182.712 348.37 185.144C349.778 187.512 350.482 190.488 350.482 194.072V209.048L326.578 210.296V212.696ZM339.826 196.952C339.826 195.48 339.666 194.072 339.346 192.728C339.026 191.32 338.418 190.168 337.522 189.272C336.626 188.376 335.282 187.992 333.49 188.12C331.57 188.184 330.098 188.6 329.074 189.368C328.114 190.072 327.442 191.064 327.058 192.344C326.738 193.56 326.578 195.064 326.578 196.856V200.6L339.826 199.736V196.952Z" fill="white"/>
<path d="M386.518 189.272C385.366 188.696 384.086 188.216 382.678 187.832C381.335 187.384 379.958 187.128 378.551 187.064C376.695 186.936 374.999 187.16 373.462 187.736C371.99 188.248 370.806 189.112 369.91 190.328C369.078 191.544 368.663 193.144 368.663 195.128V210.2C368.663 211.672 368.887 212.984 369.335 214.136C369.846 215.224 370.551 216.12 371.447 216.824C372.342 217.528 373.398 218.072 374.615 218.456C375.831 218.776 377.175 218.936 378.647 218.936C379.671 218.936 380.695 218.904 381.719 218.84C382.742 218.712 383.671 218.584 384.503 218.456C385.335 218.264 385.974 218.136 386.422 218.072C386.934 217.944 387.19 217.88 387.19 217.88L389.111 226.52C387.126 227.032 385.078 227.448 382.966 227.768C380.854 228.088 378.711 228.216 376.535 228.152C372.887 228.024 369.655 227.352 366.839 226.136C364.086 224.856 361.943 222.936 360.406 220.376C358.87 217.752 358.103 214.392 358.103 210.296V196.28C358.103 192.632 358.807 189.432 360.215 186.68C361.622 183.864 363.671 181.656 366.358 180.056C369.111 178.456 372.471 177.72 376.439 177.848C378.551 177.912 380.663 178.232 382.775 178.808C384.887 179.384 386.934 180.12 388.918 181.016L386.518 189.272Z" fill="white"/>
<path d="M407.404 181.112C407.98 180.728 408.748 180.28 409.708 179.768C410.732 179.256 411.852 178.84 413.068 178.52C414.348 178.136 415.66 177.944 417.004 177.944C418.54 177.944 420.044 178.104 421.516 178.424C422.988 178.744 424.364 179.256 425.644 179.96C426.988 180.664 428.172 181.624 429.196 182.84C430.22 184.056 431.02 185.56 431.596 187.352C432.172 189.144 432.46 191.288 432.46 193.784V227H421.996V193.976C421.996 193.08 421.836 192.248 421.516 191.48C421.196 190.712 420.716 190.04 420.076 189.464C419.5 188.888 418.764 188.44 417.868 188.12C417.036 187.8 416.108 187.64 415.084 187.64C414.38 187.64 413.612 187.736 412.78 187.928C412.012 188.056 411.18 188.28 410.284 188.6C409.388 188.92 408.428 189.336 407.404 189.848V227H396.844V159.8H407.404V181.112Z" fill="white"/>
</svg>
