<svg width="320" height="169" viewBox="0 0 320 169" fill="none" xmlns="http://www.w3.org/2000/svg">
<path d="M145.333 14.7991C145.333 6.62577 151.958 0 160.132 0C168.305 0 174.931 6.62577 174.931 14.7991V65.1159H167.038C155.05 65.1159 145.333 55.3981 145.333 43.4106V14.7991Z" fill="#45C9F9" fill-opacity="0.85"/>
<path d="M174.931 85.0946C174.931 93.2682 168.305 99.8937 160.132 99.8937C151.958 99.8937 145.333 93.2682 145.333 85.0946V34.7778H153.225C165.213 34.7778 174.931 44.4956 174.931 56.4831V85.0946Z" fill="#A76FD5" fill-opacity="0.86"/>
<path d="M174.931 34.7778H194.909C203.083 34.7778 209.708 41.4036 209.708 49.5769V50.3168C209.708 58.4901 203.083 65.1159 194.909 65.1159H174.931V34.7778Z" fill="#45C9F9" fill-opacity="0.85"/>
<path d="M145.333 65.1159H125.354C117.181 65.1159 110.555 58.4901 110.555 50.3168V49.5769C110.555 41.4036 117.181 34.7778 125.354 34.7778H145.333V65.1159Z" fill="#A76FD5" fill-opacity="0.86"/>
<path d="M203.789 88.7944C203.789 92.4727 200.808 95.454 197.129 95.454C193.451 95.454 190.47 92.4727 190.47 88.7944C190.47 85.1161 193.451 82.1348 197.129 82.1348C200.808 82.1348 203.789 85.1161 203.789 88.7944Z" fill="#76C8DB"/>
<path d="M15.4857 118.245C17.3327 118.245 19.1796 118.505 21.0265 119.026C22.8734 119.547 24.5546 120.447 26.07 121.725C27.5855 123.004 28.7931 124.803 29.6928 127.124C30.5926 129.397 31.0425 132.286 31.0425 135.79C31.0425 139.674 30.5926 142.823 29.6928 145.238C28.8404 147.606 27.6565 149.429 26.1411 150.708C24.6256 151.986 22.9445 152.863 21.0975 153.336C19.298 153.81 17.4274 154.046 15.4857 154.046H7.88494V167.969H0V118.245H15.4857ZM7.88494 146.588H12.5733C14.4202 146.588 16.0067 146.469 17.3327 146.233C18.6587 145.996 19.7479 145.522 20.6003 144.812C21.4527 144.054 22.0684 142.965 22.4472 141.544C22.8734 140.123 23.0865 138.206 23.0865 135.79C23.0865 133.565 22.8734 131.812 22.4472 130.534C22.0684 129.208 21.4527 128.237 20.6003 127.621C19.7479 126.958 18.6587 126.532 17.3327 126.343C16.0067 126.153 14.4202 126.058 12.5733 126.058H7.88494V146.588Z" fill="#142952"/>
<path d="M44.5803 134.014C45.0065 133.73 45.5748 133.399 46.2852 133.02C47.0429 132.641 47.8716 132.333 48.7714 132.096C49.7186 131.812 50.6894 131.67 51.6839 131.67C52.8205 131.67 53.9333 131.789 55.0226 132.025C56.1118 132.262 57.1299 132.641 58.0771 133.162C59.0716 133.683 59.9477 134.393 60.7054 135.293C61.4631 136.193 62.0551 137.306 62.4813 138.632C62.9075 139.958 63.1206 141.544 63.1206 143.391V167.969H55.3777V143.533C55.3777 142.87 55.2593 142.255 55.0226 141.686C54.7858 141.118 54.4306 140.621 53.957 140.195C53.5308 139.768 52.9862 139.437 52.3232 139.2C51.7076 138.963 51.0209 138.845 50.2632 138.845C49.7422 138.845 49.174 138.916 48.5583 139.058C47.99 139.153 47.3744 139.318 46.7114 139.555C46.0484 139.792 45.3381 140.1 44.5803 140.479V167.969H36.7664V118.245H44.5803V134.014Z" fill="#142952"/>
<path d="M88.4015 144.173C88.4015 142.799 88.2594 141.663 87.9753 140.763C87.6911 139.863 87.2412 139.153 86.6256 138.632C86.0099 138.111 85.2286 137.732 84.2814 137.495C83.3343 137.258 82.174 137.14 80.8007 137.14L81.44 131.741C84.1394 131.741 86.4125 131.978 88.2594 132.452C90.1537 132.925 91.6691 133.73 92.8057 134.867C93.9896 135.956 94.842 137.424 95.363 139.271C95.9312 141.118 96.2154 143.415 96.2154 146.161V167.969C95.4577 168.064 94.6763 168.159 93.8712 168.254C93.0661 168.348 92.2374 168.419 91.385 168.467C90.5799 168.561 89.7275 168.609 88.8277 168.609C87.9753 168.656 87.0992 168.68 86.1994 168.68C85.2996 168.727 84.3761 168.751 83.429 168.751C81.3926 168.751 79.4984 168.561 77.7462 168.182C75.9939 167.804 74.4312 167.164 73.0578 166.265C71.7318 165.317 70.69 164.086 69.9322 162.571C69.1745 161.055 68.7957 159.161 68.7957 156.888V149.997C68.7957 148.198 69.0561 146.635 69.5771 145.309C70.098 143.983 70.8083 142.894 71.7081 142.041C72.6079 141.189 73.6261 140.55 74.7627 140.123C75.9466 139.697 77.1779 139.484 78.4565 139.484C79.6404 139.484 80.8717 139.674 82.1504 140.052C83.429 140.384 84.6129 140.905 85.7021 141.615C86.8387 142.278 87.7385 143.131 88.4015 144.173ZM88.4015 149.997C88.1647 149.808 87.6201 149.524 86.7677 149.145C85.9626 148.766 85.0154 148.411 83.9262 148.079C82.837 147.701 81.7478 147.511 80.6586 147.511C80.1377 147.511 79.6404 147.582 79.1669 147.724C78.6933 147.819 78.2671 148.008 77.8882 148.293C77.5567 148.529 77.2726 148.885 77.0358 149.358C76.8464 149.784 76.7517 150.329 76.7517 150.992V155.609C76.7517 156.509 76.8227 157.314 76.9648 158.024C77.1542 158.735 77.4857 159.35 77.9593 159.871C78.4802 160.392 79.2142 160.795 80.1614 161.079C81.1559 161.363 82.4582 161.505 84.0683 161.505C84.3051 161.505 84.5892 161.505 84.9207 161.505C85.2996 161.458 85.6785 161.434 86.0573 161.434C86.4835 161.387 86.8624 161.363 87.1939 161.363C87.5727 161.316 87.8569 161.292 88.0463 161.292C88.2831 161.245 88.4015 161.221 88.4015 161.221V149.997Z" fill="#142952"/>
<path d="M123.132 138.845C123.132 138.845 122.824 138.774 122.208 138.632C121.64 138.442 120.717 138.348 119.438 138.348C118.68 138.348 117.899 138.395 117.094 138.49C116.289 138.537 115.484 138.655 114.679 138.845C113.921 138.987 113.163 139.176 112.405 139.413C111.648 139.65 110.914 139.958 110.203 140.337V167.969H102.318V132.381H110.203V133.801C111.387 132.996 112.713 132.381 114.181 131.954C115.649 131.528 117.141 131.315 118.657 131.315C119.746 131.315 120.764 131.433 121.711 131.67C122.658 131.86 123.511 132.096 124.268 132.381L123.132 138.845Z" fill="#142952"/>
<path d="M168.001 143.675C168.001 142.965 167.859 142.326 167.575 141.757C167.291 141.142 166.888 140.644 166.367 140.266C165.846 139.839 165.255 139.508 164.592 139.271C163.929 139.034 163.218 138.916 162.46 138.916C162.034 138.916 161.49 138.987 160.827 139.129C160.211 139.224 159.524 139.413 158.767 139.697C158.056 139.934 157.322 140.242 156.564 140.621C156.659 141.047 156.707 141.497 156.707 141.97C156.754 142.444 156.778 142.941 156.778 143.462V167.969H148.964V143.675C148.964 142.965 148.822 142.326 148.537 141.757C148.253 141.142 147.874 140.644 147.401 140.266C146.927 139.839 146.359 139.508 145.696 139.271C145.033 139.034 144.323 138.916 143.565 138.916C143.044 138.916 142.476 138.987 141.86 139.129C141.244 139.224 140.605 139.413 139.942 139.697C139.279 139.934 138.593 140.242 137.882 140.621V167.969H129.997V132.381H137.882V134.085C138.261 133.849 138.806 133.565 139.516 133.233C140.274 132.854 141.102 132.523 142.002 132.239C142.949 131.954 143.92 131.812 144.915 131.812C146.051 131.812 147.164 131.931 148.253 132.167C149.343 132.357 150.384 132.712 151.379 133.233C152.421 133.707 153.321 134.37 154.078 135.222C154.931 134.654 155.83 134.109 156.778 133.588C157.772 133.067 158.861 132.641 160.045 132.31C161.229 131.978 162.508 131.812 163.881 131.812C165.302 131.812 166.699 132.002 168.072 132.381C169.493 132.712 170.772 133.328 171.908 134.228C173.092 135.08 174.039 136.264 174.75 137.779C175.46 139.295 175.815 141.189 175.815 143.462V167.969H168.001V143.675Z" fill="#142952"/>
<path d="M201.267 144.173C201.267 142.799 201.125 141.663 200.841 140.763C200.557 139.863 200.107 139.153 199.492 138.632C198.876 138.111 198.095 137.732 197.147 137.495C196.2 137.258 195.04 137.14 193.667 137.14L194.306 131.741C197.005 131.741 199.278 131.978 201.125 132.452C203.02 132.925 204.535 133.73 205.672 134.867C206.856 135.956 207.708 137.424 208.229 139.271C208.797 141.118 209.081 143.415 209.081 146.161V167.969C208.324 168.064 207.542 168.159 206.737 168.254C205.932 168.348 205.103 168.419 204.251 168.467C203.446 168.561 202.593 168.609 201.694 168.609C200.841 168.656 199.965 168.68 199.065 168.68C198.166 168.727 197.242 168.751 196.295 168.751C194.259 168.751 192.364 168.561 190.612 168.182C188.86 167.804 187.297 167.164 185.924 166.265C184.598 165.317 183.556 164.086 182.798 162.571C182.041 161.055 181.662 159.161 181.662 156.888V149.997C181.662 148.198 181.922 146.635 182.443 145.309C182.964 143.983 183.674 142.894 184.574 142.041C185.474 141.189 186.492 140.55 187.629 140.123C188.813 139.697 190.044 139.484 191.322 139.484C192.506 139.484 193.738 139.674 195.016 140.052C196.295 140.384 197.479 140.905 198.568 141.615C199.705 142.278 200.604 143.131 201.267 144.173ZM201.267 149.997C201.031 149.808 200.486 149.524 199.634 149.145C198.829 148.766 197.881 148.411 196.792 148.079C195.703 147.701 194.614 147.511 193.525 147.511C193.004 147.511 192.506 147.582 192.033 147.724C191.559 147.819 191.133 148.008 190.754 148.293C190.423 148.529 190.139 148.885 189.902 149.358C189.712 149.784 189.618 150.329 189.618 150.992V155.609C189.618 156.509 189.689 157.314 189.831 158.024C190.02 158.735 190.352 159.35 190.825 159.871C191.346 160.392 192.08 160.795 193.027 161.079C194.022 161.363 195.324 161.505 196.934 161.505C197.171 161.505 197.455 161.505 197.787 161.505C198.166 161.458 198.544 161.434 198.923 161.434C199.35 161.387 199.728 161.363 200.06 161.363C200.439 161.316 200.723 161.292 200.912 161.292C201.149 161.245 201.267 161.221 201.267 161.221V149.997Z" fill="#142952"/>
<path d="M223.142 158.593C223.142 159.635 223.355 160.463 223.781 161.079C224.207 161.647 224.799 162.05 225.557 162.287C226.362 162.523 227.309 162.642 228.399 162.642L226.054 168.893C222.455 168.798 219.732 167.898 217.885 166.194C216.086 164.441 215.186 161.908 215.186 158.593V118.245H223.142V132.452H229.961L228.328 139.626H223.142V158.593Z" fill="#142952"/>
<path d="M241.652 157.385C241.652 158.001 241.747 158.569 241.936 159.09C242.126 159.564 242.386 159.99 242.718 160.369C243.049 160.747 243.476 161.032 243.996 161.221C244.517 161.41 245.086 161.505 245.701 161.505C246.98 161.505 248.424 161.221 250.034 160.653C251.692 160.084 253.255 159.421 254.723 158.664L257.564 165.483C255.954 166.525 254.06 167.354 251.881 167.969C249.75 168.585 247.619 168.893 245.488 168.893C243.831 168.893 242.268 168.68 240.8 168.254C239.379 167.827 238.124 167.188 237.035 166.336C235.993 165.483 235.164 164.394 234.549 163.068C233.98 161.742 233.696 160.179 233.696 158.38V143.817C233.696 141.118 234.265 138.868 235.401 137.069C236.585 135.269 238.172 133.92 240.161 133.02C242.15 132.12 244.375 131.67 246.838 131.67C249.348 131.67 251.526 132.12 253.373 133.02C255.267 133.872 256.736 135.198 257.777 136.998C258.819 138.75 259.34 140.952 259.34 143.604V154.686L241.652 155.609V157.385ZM251.455 145.735C251.455 144.646 251.337 143.604 251.1 142.61C250.863 141.568 250.413 140.715 249.75 140.052C249.087 139.389 248.093 139.105 246.767 139.2C245.346 139.247 244.257 139.555 243.499 140.123C242.789 140.644 242.292 141.378 242.007 142.326C241.771 143.225 241.652 144.338 241.652 145.664V148.435L251.455 147.795V145.735Z" fill="#142952"/>
<path d="M286.006 140.052C285.153 139.626 284.206 139.271 283.164 138.987C282.17 138.655 281.152 138.466 280.11 138.419C278.736 138.324 277.481 138.49 276.345 138.916C275.256 139.295 274.379 139.934 273.716 140.834C273.101 141.734 272.793 142.918 272.793 144.386V155.538C272.793 156.627 272.959 157.598 273.29 158.451C273.669 159.256 274.19 159.919 274.853 160.44C275.516 160.961 276.297 161.363 277.197 161.647C278.097 161.884 279.092 162.002 280.181 162.002C280.938 162.002 281.696 161.979 282.454 161.931C283.212 161.837 283.898 161.742 284.514 161.647C285.13 161.505 285.603 161.41 285.935 161.363C286.313 161.268 286.503 161.221 286.503 161.221L287.924 167.614C286.456 167.993 284.94 168.301 283.377 168.538C281.815 168.774 280.228 168.869 278.618 168.822C275.919 168.727 273.527 168.23 271.443 167.33C269.407 166.383 267.821 164.962 266.684 163.068C265.547 161.126 264.979 158.64 264.979 155.609V145.238C264.979 142.539 265.5 140.171 266.542 138.134C267.584 136.051 269.099 134.417 271.088 133.233C273.125 132.049 275.611 131.504 278.547 131.599C280.11 131.647 281.672 131.883 283.235 132.31C284.798 132.736 286.313 133.28 287.782 133.943L286.006 140.052Z" fill="#142952"/>
<path d="M301.46 134.014C301.886 133.73 302.454 133.399 303.165 133.02C303.922 132.641 304.751 132.333 305.651 132.096C306.598 131.812 307.569 131.67 308.563 131.67C309.7 131.67 310.813 131.789 311.902 132.025C312.991 132.262 314.009 132.641 314.956 133.162C315.951 133.683 316.827 134.393 317.585 135.293C318.343 136.193 318.934 137.306 319.361 138.632C319.787 139.958 320 141.544 320 143.391V167.969H312.257V143.533C312.257 142.87 312.139 142.255 311.902 141.686C311.665 141.118 311.31 140.621 310.836 140.195C310.41 139.768 309.866 139.437 309.203 139.2C308.587 138.963 307.9 138.845 307.143 138.845C306.622 138.845 306.053 138.916 305.438 139.058C304.869 139.153 304.254 139.318 303.591 139.555C302.928 139.792 302.217 140.1 301.46 140.479V167.969H293.646V118.245H301.46V134.014Z" fill="#142952"/>
</svg>
