<svg width="195" height="38" viewBox="0 0 195 38" fill="none" xmlns="http://www.w3.org/2000/svg">
<path d="M55.2567 0C56.101 0 56.9454 0.119071 57.7897 0.357213C58.634 0.595354 59.4025 1.00669 60.0953 1.59122C60.7881 2.17575 61.3401 2.99841 61.7515 4.05923C62.1628 5.09839 62.3685 6.41899 62.3685 8.02103C62.3685 9.79626 62.1628 11.2359 61.7515 12.34C61.3618 13.4225 60.8206 14.256 60.1278 14.8405C59.435 15.4251 58.6665 15.8256 57.8222 16.0421C56.9995 16.2586 56.1443 16.3668 55.2567 16.3668H51.782V22.7317H48.1774V0H55.2567ZM51.782 12.957H53.9253C54.7696 12.957 55.4949 12.9029 56.101 12.7947C56.7072 12.6864 57.2051 12.4699 57.5948 12.1452C57.9845 11.7988 58.266 11.3009 58.4392 10.6514C58.634 10.0019 58.7314 9.12514 58.7314 8.02103C58.7314 7.00352 58.634 6.2025 58.4392 5.61797C58.266 5.01179 57.9845 4.56798 57.5948 4.28654C57.2051 3.98345 56.7072 3.78861 56.101 3.70201C55.4949 3.61542 54.7696 3.57212 53.9253 3.57212H51.782V12.957Z" fill="white"/>
<path d="M68.5573 7.20918C68.7521 7.07929 69.0119 6.92774 69.3367 6.75455C69.683 6.58136 70.0619 6.44064 70.4732 6.33239C70.9062 6.2025 71.35 6.13755 71.8047 6.13755C72.3242 6.13755 72.833 6.19167 73.3309 6.29992C73.8289 6.40816 74.2943 6.58136 74.7273 6.8195C75.1819 7.05764 75.5824 7.38238 75.9288 7.79371C76.2752 8.20505 76.5458 8.7138 76.7407 9.31998C76.9355 9.92616 77.0329 10.6514 77.0329 11.4957V22.7317H73.4933V11.5607C73.4933 11.2576 73.4392 10.9761 73.3309 10.7164C73.2227 10.4566 73.0603 10.2292 72.8438 10.0344C72.649 9.83956 72.4 9.68802 72.0969 9.57977C71.8155 9.47153 71.5016 9.4174 71.1552 9.4174C70.917 9.4174 70.6573 9.44988 70.3758 9.51482C70.116 9.55812 69.8346 9.6339 69.5315 9.74214C69.2284 9.85039 68.9037 9.99111 68.5573 10.1643V22.7317H64.9852V0H68.5573V7.20918Z" fill="white"/>
<path d="M88.5901 11.8529C88.5901 11.2251 88.5251 10.7055 88.3952 10.2942C88.2653 9.88286 88.0597 9.55812 87.7782 9.31998C87.4968 9.08184 87.1396 8.90865 86.7066 8.8004C86.2736 8.69215 85.7432 8.63803 85.1154 8.63803L85.4076 6.17002C86.6416 6.17002 87.6808 6.27827 88.5251 6.49476C89.3911 6.71125 90.0839 7.07929 90.6034 7.59887C91.1447 8.0968 91.5344 8.76793 91.7725 9.61225C92.0323 10.4566 92.1622 11.5066 92.1622 12.7622V22.7317C91.8158 22.775 91.4586 22.8183 91.0905 22.8616C90.7225 22.9049 90.3436 22.9373 89.954 22.959C89.5859 23.0023 89.1962 23.0239 88.7849 23.0239C88.3952 23.0456 87.9947 23.0564 87.5834 23.0564C87.172 23.078 86.7499 23.0889 86.3169 23.0889C85.386 23.0889 84.52 23.0023 83.719 22.8291C82.918 22.6559 82.2035 22.3636 81.5757 21.9523C80.9695 21.5193 80.4933 20.9564 80.1469 20.2637C79.8005 19.5709 79.6273 18.7049 79.6273 17.6657V14.5158C79.6273 13.6931 79.7464 12.9787 79.9845 12.3725C80.2226 11.7663 80.5474 11.2684 80.9587 10.8787C81.3701 10.489 81.8355 10.1968 82.3551 10.0019C82.8963 9.80709 83.4592 9.70967 84.0437 9.70967C84.585 9.70967 85.1478 9.79626 85.7324 9.96946C86.3169 10.121 86.8581 10.3591 87.3561 10.6839C87.8756 10.987 88.287 11.3767 88.5901 11.8529ZM88.5901 14.5158C88.4818 14.4292 88.2328 14.2993 87.8432 14.1261C87.4751 13.9529 87.0421 13.7905 86.5442 13.639C86.0463 13.4658 85.5483 13.3792 85.0504 13.3792C84.8123 13.3792 84.585 13.4117 84.3685 13.4766C84.152 13.5199 83.9571 13.6065 83.7839 13.7364C83.6324 13.8447 83.5025 14.007 83.3943 14.2235C83.3077 14.4184 83.2644 14.6673 83.2644 14.9704V17.0812C83.2644 17.4926 83.2968 17.8606 83.3618 18.1853C83.4484 18.5101 83.5999 18.7915 83.8164 19.0296C84.0546 19.2678 84.3901 19.4518 84.8231 19.5817C85.2777 19.7116 85.8731 19.7765 86.6092 19.7765C86.7174 19.7765 86.8473 19.7765 86.9988 19.7765C87.172 19.7549 87.3452 19.7441 87.5184 19.7441C87.7133 19.7224 87.8865 19.7116 88.038 19.7116C88.2112 19.69 88.3411 19.6791 88.4277 19.6791C88.5359 19.6575 88.5901 19.6467 88.5901 19.6467V14.5158Z" fill="white"/>
<path d="M104.467 9.4174C104.467 9.4174 104.326 9.38493 104.045 9.31998C103.785 9.23338 103.363 9.19009 102.778 9.19009C102.432 9.19009 102.075 9.21174 101.707 9.25503C101.339 9.27668 100.971 9.33081 100.603 9.4174C100.256 9.48235 99.9098 9.56895 99.5634 9.67719C99.217 9.78544 98.8815 9.92616 98.5567 10.0994V22.7317H94.9521V6.46229H98.5567V7.11176C99.098 6.74373 99.7041 6.46229 100.375 6.26744C101.046 6.0726 101.728 5.97518 102.421 5.97518C102.919 5.97518 103.384 6.0293 103.817 6.13755C104.25 6.22415 104.64 6.33239 104.987 6.46229L104.467 9.4174Z" fill="white"/>
<path d="M124.979 11.6256C124.979 11.3009 124.914 11.0086 124.784 10.7488C124.654 10.4674 124.47 10.2401 124.232 10.0669C123.994 9.87204 123.723 9.72049 123.42 9.61225C123.117 9.504 122.792 9.44988 122.446 9.44988C122.251 9.44988 122.002 9.48235 121.699 9.5473C121.418 9.5906 121.104 9.67719 120.757 9.80709C120.433 9.91533 120.097 10.0561 119.751 10.2292C119.794 10.4241 119.816 10.6298 119.816 10.8463C119.837 11.0627 119.848 11.2901 119.848 11.5282V22.7317H116.276V11.6256C116.276 11.3009 116.211 11.0086 116.081 10.7488C115.951 10.4674 115.778 10.2401 115.562 10.0669C115.345 9.87204 115.085 9.72049 114.782 9.61225C114.479 9.504 114.154 9.44988 113.808 9.44988C113.57 9.44988 113.31 9.48235 113.029 9.5473C112.747 9.5906 112.455 9.67719 112.152 9.80709C111.849 9.91533 111.535 10.0561 111.21 10.2292V22.7317H107.606V6.46229H111.21V7.24166C111.383 7.13341 111.632 7.00352 111.957 6.85197C112.303 6.67878 112.682 6.52724 113.094 6.39734C113.527 6.26744 113.97 6.2025 114.425 6.2025C114.945 6.2025 115.453 6.25662 115.951 6.36487C116.449 6.45146 116.925 6.61383 117.38 6.85197C117.856 7.06846 118.268 7.37155 118.614 7.76124C119.004 7.50145 119.415 7.25248 119.848 7.01434C120.303 6.7762 120.801 6.58136 121.342 6.42981C121.883 6.27827 122.468 6.2025 123.096 6.2025C123.745 6.2025 124.384 6.28909 125.011 6.46229C125.661 6.61383 126.245 6.89527 126.765 7.30661C127.306 7.69629 127.739 8.23752 128.064 8.9303C128.389 9.62307 128.551 10.489 128.551 11.5282V22.7317H124.979V11.6256Z" fill="white"/>
<path d="M140.187 11.8529C140.187 11.2251 140.122 10.7055 139.992 10.2942C139.862 9.88286 139.656 9.55812 139.375 9.31998C139.093 9.08184 138.736 8.90865 138.303 8.8004C137.87 8.69215 137.34 8.63803 136.712 8.63803L137.004 6.17002C138.238 6.17002 139.277 6.27827 140.122 6.49476C140.988 6.71125 141.68 7.07929 142.2 7.59887C142.741 8.0968 143.131 8.76793 143.369 9.61225C143.629 10.4566 143.759 11.5066 143.759 12.7622V22.7317C143.412 22.775 143.055 22.8183 142.687 22.8616C142.319 22.9049 141.94 22.9373 141.551 22.959C141.182 23.0023 140.793 23.0239 140.381 23.0239C139.992 23.0456 139.591 23.0564 139.18 23.0564C138.769 23.078 138.346 23.0889 137.913 23.0889C136.983 23.0889 136.117 23.0023 135.316 22.8291C134.515 22.6559 133.8 22.3636 133.172 21.9523C132.566 21.5193 132.09 20.9564 131.743 20.2637C131.397 19.5709 131.224 18.7049 131.224 17.6657V14.5158C131.224 13.6931 131.343 12.9787 131.581 12.3725C131.819 11.7663 132.144 11.2684 132.555 10.8787C132.967 10.489 133.432 10.1968 133.952 10.0019C134.493 9.80709 135.056 9.70967 135.64 9.70967C136.182 9.70967 136.744 9.79626 137.329 9.96946C137.913 10.121 138.455 10.3591 138.953 10.6839C139.472 10.987 139.884 11.3767 140.187 11.8529ZM140.187 14.5158C140.078 14.4292 139.829 14.2993 139.44 14.1261C139.072 13.9529 138.639 13.7905 138.141 13.639C137.643 13.4658 137.145 13.3792 136.647 13.3792C136.409 13.3792 136.182 13.4117 135.965 13.4766C135.749 13.5199 135.554 13.6065 135.38 13.7364C135.229 13.8447 135.099 14.007 134.991 14.2235C134.904 14.4184 134.861 14.6673 134.861 14.9704V17.0812C134.861 17.4926 134.893 17.8606 134.958 18.1853C135.045 18.5101 135.196 18.7915 135.413 19.0296C135.651 19.2678 135.987 19.4518 136.42 19.5817C136.874 19.7116 137.47 19.7765 138.206 19.7765C138.314 19.7765 138.444 19.7765 138.595 19.7765C138.769 19.7549 138.942 19.7441 139.115 19.7441C139.31 19.7224 139.483 19.7116 139.635 19.7116C139.808 19.69 139.938 19.6791 140.024 19.6791C140.132 19.6575 140.187 19.6467 140.187 19.6467V14.5158Z" fill="white"/>
<path d="M150.187 18.4451C150.187 18.9214 150.284 19.3003 150.479 19.5817C150.674 19.8415 150.944 20.0255 151.291 20.1338C151.659 20.242 152.092 20.2961 152.59 20.2961L151.518 23.1538C149.873 23.1105 148.628 22.6992 147.783 21.9198C146.961 21.1188 146.549 19.9606 146.549 18.4451V0H150.187V6.49476H153.304L152.557 9.77462H150.187V18.4451Z" fill="white"/>
<path d="M158.648 17.8931C158.648 18.1745 158.692 18.4343 158.778 18.6724C158.865 18.8889 158.984 19.0838 159.136 19.257C159.287 19.4302 159.482 19.5601 159.72 19.6467C159.958 19.7332 160.218 19.7765 160.499 19.7765C161.084 19.7765 161.744 19.6467 162.48 19.3869C163.238 19.1271 163.953 18.824 164.624 18.4776L165.923 21.5951C165.187 22.0714 164.321 22.4502 163.325 22.7317C162.35 23.0131 161.376 23.1538 160.402 23.1538C159.644 23.1538 158.93 23.0564 158.259 22.8616C157.609 22.6667 157.036 22.3744 156.538 21.9848C156.061 21.5951 155.683 21.0971 155.401 20.491C155.141 19.8848 155.011 19.1704 155.011 18.3477V11.6906C155.011 10.4566 155.271 9.42823 155.791 8.60556C156.332 7.78289 157.057 7.16589 157.967 6.75455C158.876 6.34322 159.893 6.13755 161.019 6.13755C162.166 6.13755 163.162 6.34322 164.007 6.75455C164.873 7.14424 165.544 7.75041 166.02 8.57308C166.496 9.3741 166.734 10.3808 166.734 11.5931V16.6591L158.648 17.0812V17.8931ZM163.13 12.5674C163.13 12.0694 163.076 11.5931 162.967 11.1385C162.859 10.6622 162.654 10.2725 162.35 9.96946C162.047 9.66637 161.593 9.53647 160.987 9.57977C160.337 9.60142 159.839 9.74214 159.493 10.0019C159.168 10.2401 158.941 10.5756 158.811 11.0086C158.703 11.42 158.648 11.9287 158.648 12.5349V13.8014L163.13 13.5091V12.5674Z" fill="white"/>
<path d="M178.925 9.96946C178.535 9.77462 178.102 9.61225 177.626 9.48235C177.171 9.33081 176.706 9.24421 176.229 9.22256C175.601 9.17926 175.028 9.25503 174.508 9.44988C174.01 9.62307 173.61 9.91533 173.307 10.3267C173.025 10.738 172.884 11.2792 172.884 11.9504V17.0487C172.884 17.5467 172.96 17.9905 173.112 18.3802C173.285 18.7482 173.523 19.0513 173.826 19.2894C174.129 19.5276 174.486 19.7116 174.898 19.8415C175.309 19.9497 175.764 20.0039 176.262 20.0039C176.608 20.0039 176.954 19.993 177.301 19.9714C177.647 19.9281 177.961 19.8848 178.243 19.8415C178.524 19.7765 178.741 19.7332 178.892 19.7116C179.065 19.6683 179.152 19.6467 179.152 19.6467L179.801 22.5693C179.13 22.7425 178.437 22.8832 177.723 22.9915C177.009 23.0997 176.283 23.143 175.547 23.1213C174.313 23.078 173.22 22.8507 172.267 22.4394C171.337 22.0064 170.611 21.3569 170.092 20.491C169.572 19.6034 169.312 18.4668 169.312 17.0812V12.34C169.312 11.106 169.55 10.0236 170.027 9.09266C170.503 8.1401 171.196 7.3932 172.105 6.85197C173.036 6.31074 174.173 6.06178 175.515 6.10508C176.229 6.12672 176.944 6.23497 177.658 6.42981C178.373 6.62466 179.065 6.87362 179.736 7.17671L178.925 9.96946Z" fill="white"/>
<path d="M185.989 7.20918C186.184 7.07929 186.444 6.92774 186.769 6.75455C187.115 6.58136 187.494 6.44064 187.905 6.33239C188.338 6.2025 188.782 6.13755 189.237 6.13755C189.756 6.13755 190.265 6.19167 190.763 6.29992C191.261 6.40816 191.726 6.58136 192.159 6.8195C192.614 7.05764 193.015 7.38238 193.361 7.79371C193.707 8.20505 193.978 8.7138 194.173 9.31998C194.368 9.92616 194.465 10.6514 194.465 11.4957V22.7317H190.925V11.5607C190.925 11.2576 190.871 10.9761 190.763 10.7164C190.655 10.4566 190.492 10.2292 190.276 10.0344C190.081 9.83956 189.832 9.68802 189.529 9.57977C189.248 9.47153 188.934 9.4174 188.587 9.4174C188.349 9.4174 188.089 9.44988 187.808 9.51482C187.548 9.55812 187.267 9.6339 186.964 9.74214C186.661 9.85039 186.336 9.99111 185.989 10.1643V22.7317H182.417V0H185.989V7.20918Z" fill="white"/>
<path d="M54.0373 31.5152V32.0014C54.0373 32.5793 53.9651 33.0973 53.8206 33.5554C53.6761 34.0134 53.4682 34.4028 53.1969 34.7234C52.9256 35.0441 52.5997 35.289 52.2191 35.4581C51.8421 35.6273 51.4192 35.7118 50.9506 35.7118C50.4961 35.7118 50.0785 35.6273 49.6979 35.4581C49.3209 35.289 48.9932 35.0441 48.7149 34.7234C48.44 34.4028 48.2268 34.0134 48.0753 33.5554C47.9238 33.0973 47.848 32.5793 47.848 32.0014V31.5152C47.848 30.9373 47.922 30.4211 48.07 29.9665C48.2215 29.5085 48.4347 29.1191 48.7096 28.7985C48.9844 28.4743 49.3103 28.2276 49.6874 28.0585C50.0679 27.8894 50.4855 27.8048 50.94 27.8048C51.4087 27.8048 51.8315 27.8894 52.2085 28.0585C52.5891 28.2276 52.915 28.4743 53.1863 28.7985C53.4612 29.1191 53.6708 29.5085 53.8153 29.9665C53.9633 30.4211 54.0373 30.9373 54.0373 31.5152ZM53.0278 32.0014V31.5046C53.0278 31.0465 52.9802 30.6413 52.8851 30.2889C52.7935 29.9366 52.6578 29.6406 52.4781 29.401C52.2984 29.1614 52.0782 28.9799 51.8174 28.8566C51.5602 28.7333 51.2677 28.6716 50.94 28.6716C50.6229 28.6716 50.3357 28.7333 50.0785 28.8566C49.8248 28.9799 49.6063 29.1614 49.4231 29.401C49.2434 29.6406 49.1042 29.9366 49.0056 30.2889C48.9069 30.6413 48.8576 31.0465 48.8576 31.5046V32.0014C48.8576 32.463 48.9069 32.8718 49.0056 33.2277C49.1042 33.58 49.2452 33.8778 49.4284 34.1209C49.6151 34.3605 49.8354 34.542 50.0891 34.6653C50.3463 34.7886 50.6335 34.8503 50.9506 34.8503C51.2818 34.8503 51.576 34.7886 51.8333 34.6653C52.0905 34.542 52.3072 34.3605 52.4834 34.1209C52.6631 33.8778 52.7987 33.58 52.8904 33.2277C52.982 32.8718 53.0278 32.463 53.0278 32.0014Z" fill="#AFAFAF"/>
<path d="M56.3946 31.1082V35.6061H55.4168V29.8873H56.3418L56.3946 31.1082ZM56.1621 32.53L55.7551 32.5141C55.7586 32.123 55.8167 31.7618 55.9295 31.4306C56.0422 31.0959 56.2008 30.8052 56.4052 30.5585C56.6096 30.3119 56.8527 30.1216 57.1346 29.9877C57.42 29.8503 57.7354 29.7815 58.0807 29.7815C58.3626 29.7815 58.6163 29.8203 58.8418 29.8978C59.0673 29.9718 59.2593 30.0916 59.4179 30.2572C59.58 30.4228 59.7033 30.6378 59.7879 30.9021C59.8724 31.1628 59.9147 31.4817 59.9147 31.8587V35.6061H58.9316V31.8482C58.9316 31.5486 58.8876 31.309 58.7995 31.1293C58.7114 30.9461 58.5828 30.814 58.4137 30.7329C58.2445 30.6484 58.0366 30.6061 57.79 30.6061C57.5468 30.6061 57.3249 30.6572 57.124 30.7594C56.9267 30.8615 56.7558 31.0025 56.6113 31.1822C56.4704 31.3619 56.3594 31.568 56.2783 31.8006C56.2008 32.0296 56.1621 32.2728 56.1621 32.53Z" fill="#AFAFAF"/>
<path d="M65.0046 34.4962V27.4877H65.9877V35.6061H65.0892L65.0046 34.4962ZM61.1568 32.8101V32.6991C61.1568 32.2622 61.2097 31.8658 61.3154 31.5099C61.4246 31.1505 61.5779 30.8422 61.7752 30.5849C61.976 30.3277 62.2139 30.1304 62.4887 29.993C62.7671 29.852 63.0772 29.7815 63.419 29.7815C63.7784 29.7815 64.092 29.845 64.3598 29.9718C64.6311 30.0952 64.8601 30.2766 65.0469 30.5162C65.2372 30.7523 65.3869 31.0377 65.4962 31.3725C65.6054 31.7072 65.6811 32.086 65.7234 32.5088V32.9951C65.6847 33.4144 65.6089 33.7914 65.4962 34.1262C65.3869 34.4609 65.2372 34.7463 65.0469 34.9824C64.8601 35.2185 64.6311 35.4 64.3598 35.5268C64.0885 35.6502 63.7713 35.7118 63.4084 35.7118C63.0737 35.7118 62.7671 35.6396 62.4887 35.4951C62.2139 35.3506 61.976 35.148 61.7752 34.8873C61.5779 34.6265 61.4246 34.32 61.3154 33.9676C61.2097 33.6117 61.1568 33.2259 61.1568 32.8101ZM62.1399 32.6991V32.8101C62.1399 33.0955 62.1681 33.3633 62.2245 33.6135C62.2844 33.8637 62.376 34.0839 62.4993 34.2742C62.6226 34.4645 62.7794 34.6142 62.9697 34.7234C63.16 34.8292 63.3873 34.882 63.6515 34.882C63.9757 34.882 64.2417 34.8133 64.4496 34.6759C64.6611 34.5385 64.8302 34.357 64.957 34.1315C65.0839 33.906 65.1825 33.6611 65.253 33.3968V32.123C65.2107 31.9292 65.1491 31.7424 65.068 31.5627C64.9905 31.3795 64.8883 31.2174 64.7615 31.0765C64.6381 30.932 64.4849 30.8175 64.3016 30.7329C64.1219 30.6484 63.9088 30.6061 63.6621 30.6061C63.3943 30.6061 63.1635 30.6625 62.9697 30.7752C62.7794 30.8844 62.6226 31.036 62.4993 31.2298C62.376 31.42 62.2844 31.642 62.2245 31.8957C62.1681 32.1459 62.1399 32.4137 62.1399 32.6991Z" fill="#AFAFAF"/>
<path d="M69.8831 35.7118C69.4849 35.7118 69.1237 35.6449 68.7996 35.511C68.4789 35.3736 68.2023 35.1815 67.9697 34.9349C67.7407 34.6882 67.5645 34.3957 67.4412 34.0575C67.3179 33.7192 67.2562 33.3492 67.2562 32.9475V32.7255C67.2562 32.2604 67.3249 31.8464 67.4623 31.4835C67.5998 31.117 67.7865 30.8069 68.0226 30.5532C68.2587 30.2995 68.5265 30.1075 68.826 29.9771C69.1255 29.8467 69.4356 29.7815 69.7562 29.7815C70.165 29.7815 70.5173 29.852 70.8133 29.993C71.1128 30.1339 71.3577 30.3312 71.548 30.5849C71.7383 30.8351 71.8792 31.1311 71.9708 31.4729C72.0624 31.8112 72.1083 32.1811 72.1083 32.5828V33.0215H67.8376V32.2234H71.1304V32.1494C71.1164 31.8957 71.0635 31.6491 70.9719 31.4095C70.8838 31.1699 70.7428 30.9725 70.549 30.8175C70.3552 30.6625 70.091 30.5849 69.7562 30.5849C69.5342 30.5849 69.3299 30.6325 69.1431 30.7276C68.9564 30.8193 68.796 30.9567 68.6621 31.1399C68.5282 31.3231 68.4243 31.5469 68.3503 31.8112C68.2763 32.0754 68.2393 32.3802 68.2393 32.7255V32.9475C68.2393 33.2189 68.2763 33.4743 68.3503 33.7139C68.4278 33.95 68.5388 34.1579 68.6833 34.3376C68.8313 34.5173 69.0092 34.6583 69.2171 34.7604C69.4285 34.8626 69.6681 34.9137 69.9359 34.9137C70.2813 34.9137 70.5737 34.8432 70.8133 34.7023C71.0529 34.5614 71.2626 34.3728 71.4423 34.1368L72.0343 34.6072C71.9109 34.7939 71.7541 34.9719 71.5639 35.141C71.3736 35.3101 71.1393 35.4475 70.8609 35.5533C70.586 35.659 70.2601 35.7118 69.8831 35.7118Z" fill="#AFAFAF"/>
<path d="M78.2235 34.9084C78.4561 34.9084 78.671 34.8609 78.8683 34.7657C79.0657 34.6706 79.2278 34.5402 79.3546 34.3746C79.4815 34.2055 79.5537 34.0134 79.5713 33.7985H80.5015C80.4839 34.1368 80.3694 34.4521 80.158 34.7446C79.9501 35.0335 79.677 35.2678 79.3387 35.4475C79.0005 35.6237 78.6287 35.7118 78.2235 35.7118C77.7936 35.7118 77.4184 35.6361 77.0977 35.4845C76.7806 35.333 76.5163 35.1251 76.3049 34.8609C76.097 34.5966 75.9402 34.2936 75.8345 33.9518C75.7323 33.6065 75.6812 33.2418 75.6812 32.8577V32.6357C75.6812 32.2516 75.7323 31.8887 75.8345 31.5469C75.9402 31.2016 76.097 30.8968 76.3049 30.6325C76.5163 30.3682 76.7806 30.1603 77.0977 30.0088C77.4184 29.8573 77.7936 29.7815 78.2235 29.7815C78.671 29.7815 79.0621 29.8732 79.3969 30.0564C79.7316 30.2361 79.9941 30.4828 80.1844 30.7964C80.3782 31.1064 80.4839 31.4588 80.5015 31.8534H79.5713C79.5537 31.6174 79.4867 31.4042 79.3705 31.2139C79.2577 31.0236 79.1027 30.8721 78.9053 30.7594C78.7115 30.6431 78.4843 30.5849 78.2235 30.5849C77.924 30.5849 77.6721 30.6448 77.4677 30.7646C77.2669 30.8809 77.1065 31.0395 76.9867 31.2403C76.8704 31.4377 76.7859 31.6579 76.733 31.901C76.6837 32.1406 76.659 32.3855 76.659 32.6357V32.8577C76.659 33.1079 76.6837 33.3545 76.733 33.5976C76.7824 33.8408 76.8652 34.061 76.9814 34.2583C77.1012 34.4556 77.2616 34.6142 77.4624 34.734C77.6668 34.8503 77.9205 34.9084 78.2235 34.9084Z" fill="#AFAFAF"/>
<path d="M84.973 34.6283V31.6843C84.973 31.4588 84.9272 31.2632 84.8356 31.0976C84.7475 30.9285 84.6136 30.7981 84.4339 30.7065C84.2542 30.6149 84.0322 30.5691 83.768 30.5691C83.5213 30.5691 83.3046 30.6114 83.1178 30.6959C82.9346 30.7805 82.7901 30.8915 82.6844 31.0289C82.5823 31.1663 82.5312 31.3143 82.5312 31.4729H81.5534C81.5534 31.2685 81.6062 31.0659 81.7119 30.8651C81.8176 30.6642 81.9691 30.4828 82.1665 30.3207C82.3673 30.1551 82.6069 30.0247 82.8853 29.9295C83.1672 29.8309 83.4808 29.7815 83.8261 29.7815C84.2419 29.7815 84.6083 29.852 84.9255 29.993C85.2461 30.1339 85.4963 30.3471 85.676 30.6325C85.8592 30.9144 85.9508 31.2685 85.9508 31.6949V34.3587C85.9508 34.549 85.9667 34.7516 85.9984 34.9666C86.0336 35.1815 86.0847 35.3665 86.1517 35.5215V35.6061H85.1316C85.0823 35.4934 85.0435 35.3436 85.0153 35.1568C84.9871 34.9666 84.973 34.7904 84.973 34.6283ZM85.1422 32.1389L85.1527 32.826H84.1644C83.886 32.826 83.6376 32.8489 83.4191 32.8947C83.2006 32.937 83.0174 33.0021 82.8694 33.0902C82.7214 33.1783 82.6087 33.2893 82.5312 33.4232C82.4536 33.5536 82.4149 33.7069 82.4149 33.8831C82.4149 34.0628 82.4554 34.2266 82.5364 34.3746C82.6175 34.5226 82.7391 34.6406 82.9011 34.7287C83.0667 34.8133 83.2694 34.8556 83.509 34.8556C83.8085 34.8556 84.0728 34.7922 84.3018 34.6653C84.5308 34.5385 84.7123 34.3834 84.8462 34.2002C84.9836 34.017 85.0576 33.839 85.0682 33.6664L85.4857 34.1368C85.4611 34.2847 85.3941 34.4486 85.2849 34.6283C85.1756 34.808 85.0294 34.9807 84.8462 35.1463C84.6665 35.3084 84.4515 35.444 84.2014 35.5533C83.9547 35.659 83.6763 35.7118 83.3663 35.7118C82.9787 35.7118 82.6386 35.6361 82.3462 35.4845C82.0572 35.333 81.8317 35.1304 81.6696 34.8767C81.5111 34.6195 81.4318 34.3323 81.4318 34.0152C81.4318 33.7086 81.4917 33.4391 81.6115 33.2065C81.7313 32.9704 81.904 32.7749 82.1295 32.6198C82.355 32.4613 82.6263 32.3415 82.9434 32.2604C83.2606 32.1794 83.6147 32.1389 84.0058 32.1389H85.1422Z" fill="#AFAFAF"/>
<path d="M91.0936 34.4962V27.4877H92.0767V35.6061H91.1782L91.0936 34.4962ZM87.2458 32.8101V32.6991C87.2458 32.2622 87.2986 31.8658 87.4043 31.5099C87.5136 31.1505 87.6669 30.8422 87.8642 30.5849C88.065 30.3277 88.3029 30.1304 88.5777 29.993C88.8561 29.852 89.1662 29.7815 89.5079 29.7815C89.8674 29.7815 90.181 29.845 90.4488 29.9718C90.7201 30.0952 90.9491 30.2766 91.1359 30.5162C91.3261 30.7523 91.4759 31.0377 91.5851 31.3725C91.6944 31.7072 91.7701 32.086 91.8124 32.5088V32.9951C91.7736 33.4144 91.6979 33.7914 91.5851 34.1262C91.4759 34.4609 91.3261 34.7463 91.1359 34.9824C90.9491 35.2185 90.7201 35.4 90.4488 35.5268C90.1774 35.6502 89.8603 35.7118 89.4974 35.7118C89.1626 35.7118 88.8561 35.6396 88.5777 35.4951C88.3029 35.3506 88.065 35.148 87.8642 34.8873C87.6669 34.6265 87.5136 34.32 87.4043 33.9676C87.2986 33.6117 87.2458 33.2259 87.2458 32.8101ZM88.2289 32.6991V32.8101C88.2289 33.0955 88.2571 33.3633 88.3134 33.6135C88.3733 33.8637 88.465 34.0839 88.5883 34.2742C88.7116 34.4645 88.8684 34.6142 89.0587 34.7234C89.249 34.8292 89.4762 34.882 89.7405 34.882C90.0647 34.882 90.3307 34.8133 90.5386 34.6759C90.75 34.5385 90.9192 34.357 91.046 34.1315C91.1729 33.906 91.2715 33.6611 91.342 33.3968V32.123C91.2997 31.9292 91.2381 31.7424 91.157 31.5627C91.0795 31.3795 90.9773 31.2174 90.8505 31.0765C90.7271 30.932 90.5739 30.8175 90.3906 30.7329C90.2109 30.6484 89.9977 30.6061 89.7511 30.6061C89.4833 30.6061 89.2525 30.6625 89.0587 30.7752C88.8684 30.8844 88.7116 31.036 88.5883 31.2298C88.465 31.42 88.3733 31.642 88.3134 31.8957C88.2571 32.1459 88.2289 32.4137 88.2289 32.6991Z" fill="#AFAFAF"/>
<path d="M96.971 34.6283V31.6843C96.971 31.4588 96.9252 31.2632 96.8336 31.0976C96.7455 30.9285 96.6116 30.7981 96.4319 30.7065C96.2522 30.6149 96.0302 30.5691 95.7659 30.5691C95.5193 30.5691 95.3026 30.6114 95.1158 30.6959C94.9326 30.7805 94.7881 30.8915 94.6824 31.0289C94.5802 31.1663 94.5291 31.3143 94.5291 31.4729H93.5513C93.5513 31.2685 93.6042 31.0659 93.7099 30.8651C93.8156 30.6642 93.9671 30.4828 94.1644 30.3207C94.3653 30.1551 94.6049 30.0247 94.8833 29.9295C95.1651 29.8309 95.4788 29.7815 95.8241 29.7815C96.2399 29.7815 96.6063 29.852 96.9234 29.993C97.2441 30.1339 97.4943 30.3471 97.674 30.6325C97.8572 30.9144 97.9488 31.2685 97.9488 31.6949V34.3587C97.9488 34.549 97.9647 34.7516 97.9964 34.9666C98.0316 35.1815 98.0827 35.3665 98.1497 35.5215V35.6061H97.1296C97.0802 35.4934 97.0415 35.3436 97.0133 35.1568C96.9851 34.9666 96.971 34.7904 96.971 34.6283ZM97.1401 32.1389L97.1507 32.826H96.1623C95.884 32.826 95.6355 32.8489 95.4171 32.8947C95.1986 32.937 95.0154 33.0021 94.8674 33.0902C94.7194 33.1783 94.6066 33.2893 94.5291 33.4232C94.4516 33.5536 94.4128 33.7069 94.4128 33.8831C94.4128 34.0628 94.4534 34.2266 94.5344 34.3746C94.6155 34.5226 94.737 34.6406 94.8991 34.7287C95.0647 34.8133 95.2673 34.8556 95.5069 34.8556C95.8064 34.8556 96.0707 34.7922 96.2998 34.6653C96.5288 34.5385 96.7103 34.3834 96.8442 34.2002C96.9816 34.017 97.0556 33.839 97.0661 33.6664L97.4837 34.1368C97.459 34.2847 97.3921 34.4486 97.2829 34.6283C97.1736 34.808 97.0274 34.9807 96.8442 35.1463C96.6644 35.3084 96.4495 35.444 96.1993 35.5533C95.9527 35.659 95.6743 35.7118 95.3642 35.7118C94.9766 35.7118 94.6366 35.6361 94.3441 35.4845C94.0552 35.333 93.8297 35.1304 93.6676 34.8767C93.509 34.6195 93.4298 34.3323 93.4298 34.0152C93.4298 33.7086 93.4897 33.4391 93.6095 33.2065C93.7293 32.9704 93.9019 32.7749 94.1274 32.6198C94.3529 32.4613 94.6243 32.3415 94.9414 32.2604C95.2585 32.1794 95.6126 32.1389 96.0038 32.1389H97.1401Z" fill="#AFAFAF"/>
<path d="M103.144 31.0236V35.6061H102.161V29.8873H103.092L103.144 31.0236ZM102.944 32.53L102.489 32.5141C102.493 32.123 102.544 31.7618 102.642 31.4306C102.741 31.0959 102.887 30.8052 103.081 30.5585C103.275 30.3119 103.516 30.1216 103.805 29.9877C104.094 29.8503 104.429 29.7815 104.809 29.7815C105.077 29.7815 105.324 29.8203 105.549 29.8978C105.775 29.9718 105.97 30.0899 106.136 30.252C106.302 30.414 106.43 30.6219 106.522 30.8756C106.613 31.1293 106.659 31.4359 106.659 31.7953V35.6061H105.681V31.8429C105.681 31.5434 105.63 31.3038 105.528 31.1241C105.429 30.9443 105.289 30.814 105.105 30.7329C104.922 30.6484 104.707 30.6061 104.46 30.6061C104.172 30.6061 103.93 30.6572 103.736 30.7594C103.543 30.8615 103.388 31.0025 103.271 31.1822C103.155 31.3619 103.07 31.568 103.018 31.8006C102.968 32.0296 102.944 32.2728 102.944 32.53ZM106.649 31.9909L105.993 32.1917C105.997 31.8781 106.048 31.5768 106.147 31.2879C106.249 30.999 106.395 30.7417 106.585 30.5162C106.779 30.2907 107.017 30.1128 107.299 29.9824C107.581 29.8485 107.903 29.7815 108.266 29.7815C108.573 29.7815 108.844 29.8221 109.08 29.9031C109.32 29.9842 109.52 30.1092 109.683 30.2784C109.848 30.444 109.973 30.6572 110.058 30.9179C110.142 31.1787 110.185 31.4887 110.185 31.8482V35.6061H109.202V31.8376C109.202 31.5169 109.15 31.2685 109.048 31.0923C108.95 30.9126 108.809 30.7875 108.625 30.7171C108.446 30.6431 108.231 30.6061 107.981 30.6061C107.766 30.6061 107.575 30.6431 107.41 30.7171C107.244 30.7911 107.105 30.8933 106.992 31.0236C106.879 31.1505 106.793 31.2967 106.733 31.4623C106.677 31.6279 106.649 31.8041 106.649 31.9909Z" fill="#AFAFAF"/>
<path d="M112.727 29.8873V35.6061H111.744V29.8873H112.727ZM111.67 28.3703C111.67 28.2118 111.717 28.0779 111.813 27.9686C111.911 27.8594 112.056 27.8048 112.246 27.8048C112.433 27.8048 112.575 27.8594 112.674 27.9686C112.776 28.0779 112.827 28.2118 112.827 28.3703C112.827 28.5218 112.776 28.6522 112.674 28.7615C112.575 28.8672 112.433 28.92 112.246 28.92C112.056 28.92 111.911 28.8672 111.813 28.7615C111.717 28.6522 111.67 28.5218 111.67 28.3703Z" fill="#AFAFAF"/>
<path d="M115.359 27.4877V35.6061H114.376V27.4877H115.359Z" fill="#AFAFAF"/>
<path d="M117.991 29.8873V35.6061H117.008V29.8873H117.991ZM116.934 28.3703C116.934 28.2118 116.982 28.0779 117.077 27.9686C117.176 27.8594 117.32 27.8048 117.51 27.8048C117.697 27.8048 117.84 27.8594 117.938 27.9686C118.041 28.0779 118.092 28.2118 118.092 28.3703C118.092 28.5218 118.041 28.6522 117.938 28.7615C117.84 28.8672 117.697 28.92 117.51 28.92C117.32 28.92 117.176 28.8672 117.077 28.7615C116.982 28.6522 116.934 28.5218 116.934 28.3703Z" fill="#AFAFAF"/>
<path d="M123.266 29.8873H124.154V35.4845C124.154 35.9884 124.052 36.4183 123.848 36.7742C123.643 37.1301 123.358 37.3996 122.991 37.5829C122.628 37.7696 122.209 37.863 121.733 37.863C121.536 37.863 121.303 37.8313 121.036 37.7679C120.771 37.708 120.511 37.604 120.253 37.456C120 37.3116 119.787 37.116 119.614 36.8693L120.127 36.2879C120.366 36.5769 120.616 36.7777 120.877 36.8905C121.141 37.0032 121.402 37.0596 121.659 37.0596C121.969 37.0596 122.237 37.0015 122.463 36.8852C122.688 36.7689 122.863 36.5963 122.986 36.3672C123.113 36.1417 123.176 35.8633 123.176 35.5321V31.1452L123.266 29.8873ZM119.328 32.8101V32.6991C119.328 32.2622 119.38 31.8658 119.482 31.5099C119.587 31.1505 119.737 30.8422 119.931 30.5849C120.128 30.3277 120.366 30.1304 120.645 29.993C120.923 29.852 121.237 29.7815 121.585 29.7815C121.945 29.7815 122.258 29.845 122.526 29.9718C122.797 30.0952 123.027 30.2766 123.213 30.5162C123.404 30.7523 123.553 31.0377 123.663 31.3725C123.772 31.7072 123.848 32.086 123.89 32.5088V32.9951C123.851 33.4144 123.775 33.7914 123.663 34.1262C123.553 34.4609 123.404 34.7463 123.213 34.9824C123.027 35.2185 122.797 35.4 122.526 35.5268C122.255 35.6502 121.938 35.7118 121.575 35.7118C121.233 35.7118 120.923 35.6396 120.645 35.4951C120.37 35.3506 120.134 35.148 119.936 34.8873C119.739 34.6265 119.587 34.32 119.482 33.9676C119.38 33.6117 119.328 33.2259 119.328 32.8101ZM120.306 32.6991V32.8101C120.306 33.0955 120.334 33.3633 120.391 33.6135C120.451 33.8637 120.541 34.0839 120.66 34.2742C120.784 34.4645 120.941 34.6142 121.131 34.7234C121.321 34.8292 121.548 34.882 121.813 34.882C122.137 34.882 122.405 34.8133 122.616 34.6759C122.827 34.5385 122.995 34.357 123.118 34.1315C123.245 33.906 123.344 33.6611 123.414 33.3968V32.123C123.375 31.9292 123.315 31.7424 123.234 31.5627C123.157 31.3795 123.055 31.2174 122.928 31.0765C122.805 30.932 122.651 30.8175 122.468 30.7329C122.285 30.6484 122.07 30.6061 121.823 30.6061C121.555 30.6061 121.325 30.6625 121.131 30.7752C120.941 30.8844 120.784 31.036 120.66 31.2298C120.541 31.42 120.451 31.642 120.391 31.8957C120.334 32.1459 120.306 32.4137 120.306 32.6991Z" fill="#AFAFAF"/>
<path d="M126.617 30.7858V35.6061H125.639V29.8873H126.591L126.617 30.7858ZM128.404 29.8555L128.398 30.7646C128.317 30.747 128.24 30.7365 128.166 30.7329C128.095 30.7259 128.014 30.7224 127.923 30.7224C127.697 30.7224 127.498 30.7576 127.325 30.8281C127.153 30.8985 127.006 30.9972 126.887 31.1241C126.767 31.2509 126.672 31.4024 126.601 31.5786C126.534 31.7513 126.49 31.9415 126.469 32.1494L126.194 32.308C126.194 31.9627 126.228 31.6385 126.295 31.3355C126.365 31.0324 126.473 30.7646 126.617 30.5321C126.762 30.296 126.945 30.1128 127.167 29.9824C127.392 29.8485 127.66 29.7815 127.97 29.7815C128.041 29.7815 128.122 29.7904 128.213 29.808C128.305 29.8221 128.368 29.8379 128.404 29.8555Z" fill="#AFAFAF"/>
<path d="M132.468 34.6283V31.6843C132.468 31.4588 132.422 31.2632 132.331 31.0976C132.243 30.9285 132.109 30.7981 131.929 30.7065C131.749 30.6149 131.527 30.5691 131.263 30.5691C131.016 30.5691 130.8 30.6114 130.613 30.6959C130.43 30.7805 130.285 30.8915 130.179 31.0289C130.077 31.1663 130.026 31.3143 130.026 31.4729H129.048C129.048 31.2685 129.101 31.0659 129.207 30.8651C129.313 30.6642 129.464 30.4828 129.662 30.3207C129.862 30.1551 130.102 30.0247 130.38 29.9295C130.662 29.8309 130.976 29.7815 131.321 29.7815C131.737 29.7815 132.103 29.852 132.421 29.993C132.741 30.1339 132.991 30.3471 133.171 30.6325C133.354 30.9144 133.446 31.2685 133.446 31.6949V34.3587C133.446 34.549 133.462 34.7516 133.493 34.9666C133.529 35.1815 133.58 35.3665 133.647 35.5215V35.6061H132.627C132.577 35.4934 132.539 35.3436 132.51 35.1568C132.482 34.9666 132.468 34.7904 132.468 34.6283ZM132.637 32.1389L132.648 32.826H131.659C131.381 32.826 131.133 32.8489 130.914 32.8947C130.696 32.937 130.512 33.0021 130.364 33.0902C130.216 33.1783 130.104 33.2893 130.026 33.4232C129.949 33.5536 129.91 33.7069 129.91 33.8831C129.91 34.0628 129.95 34.2266 130.031 34.3746C130.113 34.5226 130.234 34.6406 130.396 34.7287C130.562 34.8133 130.764 34.8556 131.004 34.8556C131.304 34.8556 131.568 34.7922 131.797 34.6653C132.026 34.5385 132.207 34.3834 132.341 34.2002C132.479 34.017 132.553 33.839 132.563 33.6664L132.981 34.1368C132.956 34.2847 132.889 34.4486 132.78 34.6283C132.671 34.808 132.524 34.9807 132.341 35.1463C132.162 35.3084 131.947 35.444 131.696 35.5533C131.45 35.659 131.171 35.7118 130.861 35.7118C130.474 35.7118 130.134 35.6361 129.841 35.4845C129.552 35.333 129.327 35.1304 129.165 34.8767C129.006 34.6195 128.927 34.3323 128.927 34.0152C128.927 33.7086 128.987 33.4391 129.107 33.2065C129.226 32.9704 129.399 32.7749 129.625 32.6198C129.85 32.4613 130.121 32.3415 130.438 32.2604C130.756 32.1794 131.11 32.1389 131.501 32.1389H132.637Z" fill="#AFAFAF"/>
<path d="M135.956 31.0236V35.6061H134.973V29.8873H135.904L135.956 31.0236ZM135.756 32.53L135.301 32.5141C135.305 32.123 135.356 31.7618 135.454 31.4306C135.553 31.0959 135.699 30.8052 135.893 30.5585C136.087 30.3119 136.328 30.1216 136.617 29.9877C136.906 29.8503 137.241 29.7815 137.621 29.7815C137.889 29.7815 138.136 29.8203 138.361 29.8978C138.587 29.9718 138.782 30.0899 138.948 30.252C139.114 30.414 139.242 30.6219 139.334 30.8756C139.425 31.1293 139.471 31.4359 139.471 31.7953V35.6061H138.493V31.8429C138.493 31.5434 138.442 31.3038 138.34 31.1241C138.242 30.9443 138.101 30.814 137.917 30.7329C137.734 30.6484 137.519 30.6061 137.273 30.6061C136.984 30.6061 136.742 30.6572 136.548 30.7594C136.355 30.8615 136.2 31.0025 136.083 31.1822C135.967 31.3619 135.882 31.568 135.83 31.8006C135.78 32.0296 135.756 32.2728 135.756 32.53ZM139.461 31.9909L138.805 32.1917C138.809 31.8781 138.86 31.5768 138.959 31.2879C139.061 30.999 139.207 30.7417 139.397 30.5162C139.591 30.2907 139.829 30.1128 140.111 29.9824C140.393 29.8485 140.715 29.7815 141.078 29.7815C141.385 29.7815 141.656 29.8221 141.892 29.9031C142.132 29.9842 142.332 30.1092 142.495 30.2784C142.66 30.444 142.785 30.6572 142.87 30.9179C142.954 31.1787 142.997 31.4887 142.997 31.8482V35.6061H142.014V31.8376C142.014 31.5169 141.963 31.2685 141.86 31.0923C141.762 30.9126 141.621 30.7875 141.437 30.7171C141.258 30.6431 141.043 30.6061 140.793 30.6061C140.578 30.6061 140.387 30.6431 140.222 30.7171C140.056 30.7911 139.917 30.8933 139.804 31.0236C139.692 31.1505 139.605 31.2967 139.545 31.4623C139.489 31.6279 139.461 31.8041 139.461 31.9909Z" fill="#AFAFAF"/>
<path d="M147.849 34.6283V31.6843C147.849 31.4588 147.803 31.2632 147.711 31.0976C147.623 30.9285 147.489 30.7981 147.31 30.7065C147.13 30.6149 146.908 30.5691 146.644 30.5691C146.397 30.5691 146.18 30.6114 145.994 30.6959C145.81 30.7805 145.666 30.8915 145.56 31.0289C145.458 31.1663 145.407 31.3143 145.407 31.4729H144.429C144.429 31.2685 144.482 31.0659 144.588 30.8651C144.693 30.6642 144.845 30.4828 145.042 30.3207C145.243 30.1551 145.483 30.0247 145.761 29.9295C146.043 29.8309 146.356 29.7815 146.702 29.7815C147.118 29.7815 147.484 29.852 147.801 29.993C148.122 30.1339 148.372 30.3471 148.552 30.6325C148.735 30.9144 148.827 31.2685 148.827 31.6949V34.3587C148.827 34.549 148.842 34.7516 148.874 34.9666C148.909 35.1815 148.96 35.3665 149.027 35.5215V35.6061H148.007C147.958 35.4934 147.919 35.3436 147.891 35.1568C147.863 34.9666 147.849 34.7904 147.849 34.6283ZM148.018 32.1389L148.028 32.826H147.04C146.762 32.826 146.513 32.8489 146.295 32.8947C146.076 32.937 145.893 33.0021 145.745 33.0902C145.597 33.1783 145.484 33.2893 145.407 33.4232C145.329 33.5536 145.291 33.7069 145.291 33.8831C145.291 34.0628 145.331 34.2266 145.412 34.3746C145.493 34.5226 145.615 34.6406 145.777 34.7287C145.942 34.8133 146.145 34.8556 146.385 34.8556C146.684 34.8556 146.948 34.7922 147.177 34.6653C147.407 34.5385 147.588 34.3834 147.722 34.2002C147.859 34.017 147.933 33.839 147.944 33.6664L148.361 34.1368C148.337 34.2847 148.27 34.4486 148.161 34.6283C148.051 34.808 147.905 34.9807 147.722 35.1463C147.542 35.3084 147.327 35.444 147.077 35.5533C146.83 35.659 146.552 35.7118 146.242 35.7118C145.854 35.7118 145.514 35.6361 145.222 35.4845C144.933 35.333 144.707 35.1304 144.545 34.8767C144.387 34.6195 144.307 34.3323 144.307 34.0152C144.307 33.7086 144.367 33.4391 144.487 33.2065C144.607 32.9704 144.78 32.7749 145.005 32.6198C145.231 32.4613 145.502 32.3415 145.819 32.2604C146.136 32.1794 146.49 32.1389 146.882 32.1389H148.018Z" fill="#AFAFAF"/>
<path d="M155.338 34.9084C155.571 34.9084 155.786 34.8609 155.983 34.7657C156.18 34.6706 156.342 34.5402 156.469 34.3746C156.596 34.2055 156.668 34.0134 156.686 33.7985H157.616C157.599 34.1368 157.484 34.4521 157.273 34.7446C157.065 35.0335 156.792 35.2678 156.453 35.4475C156.115 35.6237 155.743 35.7118 155.338 35.7118C154.908 35.7118 154.533 35.6361 154.212 35.4845C153.895 35.333 153.631 35.1251 153.42 34.8609C153.212 34.5966 153.055 34.2936 152.949 33.9518C152.847 33.6065 152.796 33.2418 152.796 32.8577V32.6357C152.796 32.2516 152.847 31.8887 152.949 31.5469C153.055 31.2016 153.212 30.8968 153.42 30.6325C153.631 30.3682 153.895 30.1603 154.212 30.0088C154.533 29.8573 154.908 29.7815 155.338 29.7815C155.786 29.7815 156.177 29.8732 156.512 30.0564C156.846 30.2361 157.109 30.4828 157.299 30.7964C157.493 31.1064 157.599 31.4588 157.616 31.8534H156.686C156.668 31.6174 156.601 31.4042 156.485 31.2139C156.372 31.0236 156.217 30.8721 156.02 30.7594C155.826 30.6431 155.599 30.5849 155.338 30.5849C155.039 30.5849 154.787 30.6448 154.582 30.7646C154.382 30.8809 154.221 31.0395 154.101 31.2403C153.985 31.4377 153.901 31.6579 153.848 31.901C153.798 32.1406 153.774 32.3855 153.774 32.6357V32.8577C153.774 33.1079 153.798 33.3545 153.848 33.5976C153.897 33.8408 153.98 34.061 154.096 34.2583C154.216 34.4556 154.376 34.6142 154.577 34.734C154.781 34.8503 155.035 34.9084 155.338 34.9084Z" fill="#AFAFAF"/>
<path d="M158.457 32.8101V32.6885C158.457 32.2763 158.517 31.894 158.636 31.5416C158.756 31.1857 158.929 30.8774 159.154 30.6166C159.38 30.3524 159.653 30.148 159.974 30.0035C160.294 29.8555 160.654 29.7815 161.052 29.7815C161.453 29.7815 161.815 29.8555 162.135 30.0035C162.459 30.148 162.734 30.3524 162.96 30.6166C163.189 30.8774 163.363 31.1857 163.483 31.5416C163.603 31.894 163.663 32.2763 163.663 32.6885V32.8101C163.663 33.2224 163.603 33.6047 163.483 33.9571C163.363 34.3094 163.189 34.6177 162.96 34.882C162.734 35.1428 162.461 35.3471 162.141 35.4951C161.823 35.6396 161.464 35.7118 161.062 35.7118C160.661 35.7118 160.3 35.6396 159.979 35.4951C159.658 35.3471 159.383 35.1428 159.154 34.882C158.929 34.6177 158.756 34.3094 158.636 33.9571C158.517 33.6047 158.457 33.2224 158.457 32.8101ZM159.434 32.6885V32.8101C159.434 33.0955 159.468 33.3651 159.535 33.6188C159.602 33.869 159.702 34.091 159.836 34.2848C159.974 34.4786 160.144 34.6318 160.349 34.7446C160.553 34.8538 160.791 34.9084 161.062 34.9084C161.33 34.9084 161.564 34.8538 161.765 34.7446C161.97 34.6318 162.139 34.4786 162.273 34.2848C162.407 34.091 162.507 33.869 162.574 33.6188C162.644 33.3651 162.68 33.0955 162.68 32.8101V32.6885C162.68 32.4067 162.644 32.1406 162.574 31.8904C162.507 31.6367 162.405 31.413 162.267 31.2192C162.134 31.0219 161.964 30.8668 161.76 30.7541C161.559 30.6413 161.323 30.5849 161.052 30.5849C160.784 30.5849 160.548 30.6413 160.344 30.7541C160.143 30.8668 159.974 31.0219 159.836 31.2192C159.702 31.413 159.602 31.6367 159.535 31.8904C159.468 32.1406 159.434 32.4067 159.434 32.6885Z" fill="#AFAFAF"/>
<path d="M165.867 31.1082V35.6061H164.889V29.8873H165.814L165.867 31.1082ZM165.634 32.53L165.227 32.5141C165.231 32.123 165.289 31.7618 165.402 31.4306C165.514 31.0959 165.673 30.8052 165.877 30.5585C166.082 30.3119 166.325 30.1216 166.607 29.9877C166.892 29.8503 167.208 29.7815 167.553 29.7815C167.835 29.7815 168.088 29.8203 168.314 29.8978C168.54 29.9718 168.732 30.0916 168.89 30.2572C169.052 30.4228 169.176 30.6378 169.26 30.9021C169.345 31.1628 169.387 31.4817 169.387 31.8587V35.6061H168.404V31.8482C168.404 31.5486 168.36 31.309 168.272 31.1293C168.184 30.9461 168.055 30.814 167.886 30.7329C167.717 30.6484 167.509 30.6061 167.262 30.6061C167.019 30.6061 166.797 30.6572 166.596 30.7594C166.399 30.8615 166.228 31.0025 166.084 31.1822C165.943 31.3619 165.832 31.568 165.751 31.8006C165.673 32.0296 165.634 32.2728 165.634 32.53Z" fill="#AFAFAF"/>
<path d="M173.266 29.8873V30.6378H170.174V29.8873H173.266ZM171.221 28.4972H172.199V34.1896C172.199 34.3834 172.229 34.5296 172.289 34.6283C172.349 34.727 172.426 34.7922 172.521 34.8239C172.616 34.8556 172.719 34.8714 172.828 34.8714C172.909 34.8714 172.993 34.8644 173.081 34.8503C173.173 34.8327 173.242 34.8186 173.288 34.808L173.293 35.6061C173.215 35.6308 173.113 35.6537 172.986 35.6748C172.863 35.6995 172.713 35.7118 172.537 35.7118C172.297 35.7118 172.077 35.6643 171.876 35.5691C171.676 35.474 171.515 35.3154 171.395 35.0934C171.279 34.8679 171.221 34.5649 171.221 34.1843V28.4972Z" fill="#AFAFAF"/>
<path d="M177.786 34.6283V31.6843C177.786 31.4588 177.74 31.2632 177.648 31.0976C177.56 30.9285 177.426 30.7981 177.246 30.7065C177.067 30.6149 176.845 30.5691 176.58 30.5691C176.334 30.5691 176.117 30.6114 175.93 30.6959C175.747 30.7805 175.603 30.8915 175.497 31.0289C175.395 31.1663 175.344 31.3143 175.344 31.4729H174.366C174.366 31.2685 174.419 31.0659 174.524 30.8651C174.63 30.6642 174.782 30.4828 174.979 30.3207C175.18 30.1551 175.419 30.0247 175.698 29.9295C175.98 29.8309 176.293 29.7815 176.639 29.7815C177.054 29.7815 177.421 29.852 177.738 29.993C178.059 30.1339 178.309 30.3471 178.488 30.6325C178.672 30.9144 178.763 31.2685 178.763 31.6949V34.3587C178.763 34.549 178.779 34.7516 178.811 34.9666C178.846 35.1815 178.897 35.3665 178.964 35.5215V35.6061H177.944C177.895 35.4934 177.856 35.3436 177.828 35.1568C177.8 34.9666 177.786 34.7904 177.786 34.6283ZM177.955 32.1389L177.965 32.826H176.977C176.698 32.826 176.45 32.8489 176.232 32.8947C176.013 32.937 175.83 33.0021 175.682 33.0902C175.534 33.1783 175.421 33.2893 175.344 33.4232C175.266 33.5536 175.227 33.7069 175.227 33.8831C175.227 34.0628 175.268 34.2266 175.349 34.3746C175.43 34.5226 175.552 34.6406 175.714 34.7287C175.879 34.8133 176.082 34.8556 176.321 34.8556C176.621 34.8556 176.885 34.7922 177.114 34.6653C177.343 34.5385 177.525 34.3834 177.659 34.2002C177.796 34.017 177.87 33.839 177.881 33.6664L178.298 34.1368C178.274 34.2847 178.207 34.4486 178.097 34.6283C177.988 34.808 177.842 34.9807 177.659 35.1463C177.479 35.3084 177.264 35.444 177.014 35.5533C176.767 35.659 176.489 35.7118 176.179 35.7118C175.791 35.7118 175.451 35.6361 175.159 35.4845C174.87 35.333 174.644 35.1304 174.482 34.8767C174.324 34.6195 174.244 34.3323 174.244 34.0152C174.244 33.7086 174.304 33.4391 174.424 33.2065C174.544 32.9704 174.716 32.7749 174.942 32.6198C175.167 32.4613 175.439 32.3415 175.756 32.2604C176.073 32.1794 176.427 32.1389 176.818 32.1389H177.955Z" fill="#AFAFAF"/>
<path d="M180.317 35.0881C180.317 34.9225 180.368 34.7833 180.471 34.6706C180.576 34.5543 180.728 34.4962 180.925 34.4962C181.122 34.4962 181.272 34.5543 181.374 34.6706C181.48 34.7833 181.533 34.9225 181.533 35.0881C181.533 35.2502 181.48 35.3876 181.374 35.5004C181.272 35.6132 181.122 35.6695 180.925 35.6695C180.728 35.6695 180.576 35.6132 180.471 35.5004C180.368 35.3876 180.317 35.2502 180.317 35.0881Z" fill="#AFAFAF"/>
<path d="M10.1563 4.81885C10.1563 2.43198 12.0912 0.497037 14.4781 0.497037C16.865 0.497037 18.7999 2.43198 18.7999 4.81885V19.6016H16.5245C13.0074 19.6016 10.1563 16.7505 10.1563 13.2334V4.81885Z" fill="#45C9F9" fill-opacity="0.85"/>
<path d="M18.8001 25.4834C18.8001 27.8703 16.8651 29.8053 14.4783 29.8053C12.0914 29.8053 10.1564 27.8703 10.1564 25.4834L10.1564 10.7007L12.4319 10.7007C15.9489 10.7007 18.8001 13.5518 18.8001 17.0689V25.4834Z" fill="#A76FD5" fill-opacity="0.86"/>
<path d="M18.8001 10.7007H24.6144C27.0124 10.7007 28.9563 12.6446 28.9563 15.0426V15.2597C28.9563 17.6577 27.0124 19.6017 24.6144 19.6017L18.7999 19.6016L18.8001 10.7007Z" fill="#45C9F9" fill-opacity="0.85"/>
<path d="M10.1563 19.6017L4.34196 19.6017C1.94396 19.6017 -2.08667e-07 17.6577 0 15.2597L1.88916e-08 15.0426C2.27559e-07 12.6446 1.94396 10.7006 4.34196 10.7006L10.1564 10.7007L10.1563 19.6017Z" fill="#A76FD5" fill-opacity="0.86"/>
<path d="M27.2275 26.5488C27.2275 27.6279 26.3568 28.5026 25.2827 28.5026C24.2086 28.5026 23.3379 27.6279 23.3379 26.5488C23.3379 25.4697 24.2086 24.5949 25.2827 24.5949C26.3568 24.5949 27.2275 25.4697 27.2275 26.5488Z" fill="#76C8DB"/>
</svg>
